<svg xmlns="http://www.w3.org/2000/svg" version="1.1" xmlns:xlink="http://www.w3.org/1999/xlink" xmlns:svgjs="http://svgjs.dev/svgjs" width="1440" height="560" preserveAspectRatio="none" viewBox="0 0 1440 560"><g mask="url(&quot;#SvgjsMask1056&quot;)" fill="none"><rect width="1440" height="560" x="0" y="0" fill="rgba(49, 130, 206, 1)"></rect><path d="M0,467.193C107.874,468.866,221.48,543.681,316.141,491.924C410.701,440.222,432.946,315.336,465.587,212.626C494.99,120.106,518.803,22.957,495.097,-71.184C472.521,-160.839,407.807,-232.191,338.241,-293.087C275.378,-348.115,198.445,-379.354,117.862,-401.402C38.561,-423.1,-42.818,-436.941,-123.124,-419.321C-207.139,-400.887,-284.915,-360.391,-345.829,-299.663C-409.692,-235.995,-443.473,-152.737,-475.193,-68.322C-514.738,36.916,-585.726,145.053,-553.398,252.728C-520.663,361.758,-416.047,441.08,-309.901,482.216C-211.474,520.361,-105.547,465.556,0,467.193" fill="#2c75b9"></path><path d="M1440 936.73C1524.443 946.534 1615.805 990.5899999999999 1689.594 948.377 1763.422 906.142 1786.737 810.037 1806.199 727.238 1823.199 654.913 1801.031 583.113 1792.805 509.274 1784.263 432.592 1806.346 344.632 1756.972 285.342 1707.527 225.96699999999998 1619.2930000000001 221.39499999999998 1542.982 209.277 1474.666 198.428 1406.489 200.36399999999998 1339.906 219.11200000000002 1272.738 238.02499999999998 1215.013 274.548 1159.769 317.179 1092.411 369.158 986.71 409.318 983.258 494.33 979.7049999999999 581.82 1099.137 620.044 1144.426 694.984 1182.286 757.631 1168.404 848.104 1225.064 894.446 1282.754 941.63 1365.969 928.135 1440 936.73" fill="#468fd3"></path></g><defs><mask id="SvgjsMask1056"><rect width="1440" height="560" fill="#ffffff"></rect></mask></defs></svg>