<svg xmlns="http://www.w3.org/2000/svg" version="1.1" xmlns:xlink="http://www.w3.org/1999/xlink" xmlns:svgjs="http://svgjs.dev/svgjs" width="1440" height="560" preserveAspectRatio="none" viewBox="0 0 1440 560"><g mask="url(&quot;#SvgjsMask1053&quot;)" fill="none"><rect width="1440" height="560" x="0" y="0" fill="rgba(255, 196, 12, 1)"></rect><path d="M0,401.748C74.868,397.386,150.355,369.307,203.036,315.931C251.701,266.624,238.103,184.48,273.319,124.821C314.902,54.376,415.974,20.028,425.652,-61.199C435.353,-142.617,377.276,-218.49,321.37,-278.469C266.656,-337.17,195.831,-391.058,115.632,-393.807C38.935,-396.436,-17.545,-327.38,-85.865,-292.428C-139.507,-264.985,-192.965,-244.234,-242.834,-210.417C-309.475,-165.227,-399.215,-137.045,-426.64,-61.342C-454.46,15.45,-419.831,102.048,-382.314,174.597C-345.913,244.988,-286.96,300.032,-218.832,340.51C-152.366,380,-77.181,406.245,0,401.748" fill="#ce9c00"></path><path d="M1440 1024.214C1523.506 1006.304 1583.4 939.662 1648.365 884.223 1704.878 835.9970000000001 1767.8980000000001 791.25 1794.348 721.825 1820.067 654.317 1801.801 580.963 1791.121 509.516 1780.501 438.46500000000003 1776.031 363.717 1732.299 306.721 1687.379 248.176 1619.829 209.01 1547.901 192.524 1478.223 176.55399999999997 1409.768 205.36900000000003 1339.174 216.61900000000003 1256.768 229.752 1162.5520000000001 210.586 1098.554 264.135 1032.884 319.084 1020.364 413.277 1003.754 497.277 986.361 585.233 972.35 675.607 1000.346 760.783 1030.147 851.451 1083.143 938.836 1165.012 987.89 1245.963 1036.394 1347.728 1044.004 1440 1024.214" fill="#ffd349"></path></g><defs><mask id="SvgjsMask1053"><rect width="1440" height="560" fill="#ffffff"></rect></mask></defs></svg>