<svg xmlns="http://www.w3.org/2000/svg" version="1.1" xmlns:xlink="http://www.w3.org/1999/xlink" xmlns:svgjs="http://svgjs.dev/svgjs" width="1440" height="560" preserveAspectRatio="none" viewBox="0 0 1440 560"><g mask="url(&quot;#SvgjsMask1050&quot;)" fill="none"><rect width="1440" height="560" x="0" y="0" fill="rgba(255, 196, 12, 1)"></rect><path d="M0,483.128C104.494,488.277,215.62,528.522,307.471,478.433C400.597,427.649,437.311,316.32,482.158,220.194C527.35,123.328,575.158,24.916,568.836,-81.786C562.224,-193.385,529.501,-312.074,446.204,-386.638C365.256,-459.1,242.701,-441.197,137.411,-467.98C36.887,-493.551,-55.074,-544.829,-158.709,-540.512C-282.49,-535.355,-422.102,-529.352,-509,-441.051C-596.546,-352.091,-584.68,-210.132,-605.023,-86.989C-625.828,38.952,-694.227,177.484,-629.338,287.409C-564.111,397.907,-411.12,410.957,-288.594,449.061C-194.186,478.421,-98.748,478.262,0,483.128" fill="#ce9c00"></path><path d="M1440 946.325C1514.845 951.347 1601.482 946.49 1653.893 892.8240000000001 1705.899 839.572 1675.144 748.987 1700.9189999999999 679.158 1723.874 616.968 1791.237 575.016 1795.614 508.87 1800.292 438.176 1780.114 357.624 1725.156 312.911 1670.701 268.607 1586.849 308.671 1520.69 285.195 1448.312 259.512 1402.398 165.07299999999998 1325.844 171.22000000000003 1250.656 177.257 1205.814 257.269 1156.598 314.43100000000004 1107.528 371.423 1052.601 428.334 1040.5520000000001 502.568 1028.416 577.337 1053.834 653.365 1090.859 719.447 1126.004 782.174 1183.5 826.129 1243.791 865.307 1304.35 904.659 1367.94 941.49 1440 946.325" fill="#ffd349"></path></g><defs><mask id="SvgjsMask1050"><rect width="1440" height="560" fill="#ffffff"></rect></mask></defs></svg>