<svg xmlns="http://www.w3.org/2000/svg" version="1.1" xmlns:xlink="http://www.w3.org/1999/xlink" xmlns:svgjs="http://svgjs.dev/svgjs" width="1440" height="560" preserveAspectRatio="none" viewBox="0 0 1440 560"><g mask="url(&quot;#SvgjsMask1060&quot;)" fill="none"><rect width="1440" height="560" x="0" y="0" fill="rgba(49, 130, 206, 1)"></rect><path d="M0,407.809C76.206,408.399,139.746,357.987,206.847,321.86C279.822,282.57,362.869,255.456,409.823,187.16C460.646,113.237,503.175,16.891,475.091,-68.308C447.03,-153.434,342.235,-180.518,270.785,-234.636C215.487,-276.52,168.651,-328.314,102.844,-350.256C35.439,-372.73,-34.84,-364.534,-105.76,-360.185C-196.7,-354.609,-315.278,-393.531,-370.707,-321.22C-427.23,-247.482,-335.548,-141.98,-343.948,-49.452C-351.665,35.556,-447.346,110.669,-417.165,190.513C-387.327,269.452,-279.644,279.688,-204.799,318.674C-137.403,353.78,-75.989,407.221,0,407.809" fill="#2c75b9"></path><path d="M1440 1154.8980000000001C1549.334 1161.086 1621.391 1042.579 1703.751 970.405 1774.291 908.5889999999999 1848.085 849.473 1886.282 763.81 1924.275 678.605 1926.6480000000001 584.195 1917.351 491.367 1907.719 395.195 1893.959 294.516 1831.863 220.449 1769.367 145.90499999999997 1673.917 107.60199999999998 1578.744 87.483 1488.243 68.35199999999998 1396.362 83.06 1307.768 109.65899999999999 1219.614 136.12599999999998 1131.777 171.144 1070.714 240.012 1009.2950000000001 309.281 1000.175 405.204 968.567 492.218 927.738 604.616 804.145 719.016 857.911 825.831 912.397 934.076 1089.27 881.957 1194.7640000000001 941.595 1291.027 996.014 1329.597 1148.649 1440 1154.8980000000001" fill="#468fd3"></path></g><defs><mask id="SvgjsMask1060"><rect width="1440" height="560" fill="#ffffff"></rect></mask></defs></svg>