<svg width="217" height="64" xmlns="http://www.w3.org/2000/svg" xml:space="preserve" version="1.1">

 <g>
  <title>Layer 1</title>
  <path fill="#DD6B20" id="svg_1" d="m58,42.81l0,-19.81c0,-6.07 -4.93,-11 -11,-11s-11,4.93 -11,11l0,26c0,3.86 -3.14,7 -7,7s-7,-3.14 -7,-7l0,-3.75c0,-0.03 -0.01,-0.05 -0.02,-0.07c0,-0.06 0.01,-0.12 0.01,-0.18l0,-2.17c1.01,-0.33 2,-1.19 2,-2.83l0,-3.7c0.21,-0.14 0.4,-0.27 0.56,-0.37c3.77,-2.51 9.45,-6.31 9.45,-13.33l0,-9.6c0,-4.96 -4.04,-9 -9,-9c-1.65,0 -3,1.35 -3,3s1.35,3 3,3s3,1.35 3,3l0,9.6c0,3.81 -3.6,6.21 -6.78,8.34c-0.84,0.56 -1.57,1.06 -2.22,1.56c-0.65,-0.5 -1.38,-1 -2.22,-1.56c-3.18,-2.12 -6.78,-4.53 -6.78,-8.34l0,-9.6c0,-1.65 1.35,-3 3,-3s3,-1.35 3,-3s-1.35,-3 -3,-3c-4.96,0 -9,4.04 -9,9l0,9.6c0,7.02 5.68,10.81 9.45,13.33c0.15,0.1 0.35,0.23 0.55,0.37l0,3.7c0,1 0.56,2.39 2,2.84l0,2.16c0,0.06 0.01,0.12 0.01,0.18c0,0.02 -0.01,0.05 -0.01,0.07l0,3.75c0,7.17 5.83,13 13,13s13,-5.83 13,-13l0,-26c0,-2.76 2.24,-5 5,-5s5,2.24 5,5l0,19.81c-1.79,1.04 -3,2.97 -3,5.19c0,3.31 2.69,6 6,6s6,-2.69 6,-6c0,-2.21 -1.21,-4.15 -3,-5.19zm-40,2.19l0,-2l2,0l0,1.99c-0.01,0.46 -0.19,1.01 -1,1.01s-0.99,-0.55 -1,-1zm3,-4l-4,0c-0.81,0 -0.99,-0.55 -1,-1l0,-1.79c0.45,1.2 1.54,1.92 3,1.92s2.55,-0.72 3,-1.92l0,1.79c0,0.81 -0.55,0.99 -1,1zm-15,-18.4l0,-9.6c0,-3.86 3.14,-7 7,-7c0.55,0 1,0.45 1,1s-0.45,1 -1,1c-2.76,0 -5,2.24 -5,5l0,9.6c0,4.88 4.43,7.84 7.67,10c1.08,0.73 1.97,1.33 2.68,1.94c0.38,0.33 0.94,0.33 1.32,0c0.71,-0.62 1.59,-1.22 2.68,-1.94c3.24,-2.16 7.67,-5.12 7.67,-10l0,-9.6c0,-2.76 -2.24,-5 -5,-5c-0.55,0 -1,-0.45 -1,-1s0.45,-1 1,-1c3.86,0 7,3.14 7,7l0,9.6c0,5.95 -5.15,9.39 -8.56,11.67c-1.52,1.01 -2.62,1.78 -3.04,2.36c-0.1,0.14 -0.16,0.3 -0.18,0.48c-0.08,0.71 -0.45,1.03 -1.22,1.03s-1.14,-0.32 -1.22,-1.03c-0.02,-0.17 -0.08,-0.33 -0.18,-0.48c-0.42,-0.58 -1.52,-1.35 -3.05,-2.36c-3.42,-2.28 -8.57,-5.72 -8.57,-11.67zm41,-6.6c-3.86,0 -7,3.14 -7,7l0,26c0,6.07 -4.93,11 -11,11s-11,-4.93 -11,-11l0,-1.16c0.3,0.09 0.62,0.16 1,0.16s0.7,-0.07 1,-0.16l0,1.16c0,4.96 4.04,9 9,9s9,-4.04 9,-9l0,-26c0,-4.96 4.04,-9 9,-9s9,4.04 9,9l0,19.09c-0.33,-0.05 -0.66,-0.09 -1,-0.09s-0.67,0.04 -1,0.09l0,-19.09c0,-3.86 -3.14,-7 -7,-7zm8,36c-2.21,0 -4,-1.79 -4,-4s1.79,-4 4,-4s4,1.79 4,4s-1.79,4 -4,4z"/>
  <text transform="matrix(0.544146 0 0 0.680744 31.1053 7.78536)" stroke="#000" xml:space="preserve" text-anchor="start" font-family="'Gemunu Libre'" font-size="69" id="svg_2" y="57.62058" x="71.65589" stroke-width="0" fill="#DD6B20">CLINIFY</text>
 </g>
</svg>
