<svg xmlns="http://www.w3.org/2000/svg" xmlns:xlink="http://www.w3.org/1999/xlink" version="1.1" x="0px" y="0px" viewBox="0 0 64 64"  xml:space="preserve"><path fill="#DD6B20" d="M58,42.81V23c0-6.07-4.93-11-11-11s-11,4.93-11,11v26c0,3.86-3.14,7-7,7s-7-3.14-7-7v-3.75c0-0.03-0.01-0.05-0.02-0.07  c0-0.06,0.01-0.12,0.01-0.18v-2.17c1.01-0.33,2-1.19,2-2.83v-3.7c0.21-0.14,0.4-0.27,0.56-0.37C28.32,33.42,34,29.62,34,22.6V13  c0-4.96-4.04-9-9-9c-1.65,0-3,1.35-3,3s1.35,3,3,3s3,1.35,3,3v9.6c0,3.81-3.6,6.21-6.78,8.34C20.38,31.5,19.65,32,19,32.5  c-0.65-0.5-1.38-1-2.22-1.56C13.6,28.82,10,26.41,10,22.6V13c0-1.65,1.35-3,3-3s3-1.35,3-3s-1.35-3-3-3c-4.96,0-9,4.04-9,9v9.6  c0,7.02,5.68,10.81,9.45,13.33c0.15,0.1,0.35,0.23,0.55,0.37V40c0,1,0.56,2.39,2,2.84V45c0,0.06,0.01,0.12,0.01,0.18  c0,0.02-0.01,0.05-0.01,0.07V49c0,7.17,5.83,13,13,13s13-5.83,13-13V23c0-2.76,2.24-5,5-5s5,2.24,5,5v19.81  c-1.79,1.04-3,2.97-3,5.19c0,3.31,2.69,6,6,6s6-2.69,6-6C61,45.79,59.79,43.85,58,42.81z M18,45v-2h2v1.99  C19.99,45.45,19.81,46,19,46S18.01,45.45,18,45z M21,41h-4c-0.81,0-0.99-0.55-1-1v-1.79c0.45,1.2,1.54,1.92,3,1.92s2.55-0.72,3-1.92  V40C22,40.81,21.45,40.99,21,41z M6,22.6V13c0-3.86,3.14-7,7-7c0.55,0,1,0.45,1,1s-0.45,1-1,1c-2.76,0-5,2.24-5,5v9.6  c0,4.88,4.43,7.84,7.67,10c1.08,0.73,1.97,1.33,2.68,1.94c0.38,0.33,0.94,0.33,1.32,0c0.71-0.62,1.59-1.22,2.68-1.94  c3.24-2.16,7.67-5.12,7.67-10V13c0-2.76-2.24-5-5-5c-0.55,0-1-0.45-1-1s0.45-1,1-1c3.86,0,7,3.14,7,7v9.6  c0,5.95-5.15,9.39-8.56,11.67c-1.52,1.01-2.62,1.78-3.04,2.36c-0.1,0.14-0.16,0.3-0.18,0.48c-0.08,0.71-0.45,1.03-1.22,1.03  s-1.14-0.32-1.22-1.03c-0.02-0.17-0.08-0.33-0.18-0.48c-0.42-0.58-1.52-1.35-3.05-2.36C11.15,31.99,6,28.55,6,22.6z M47,16  c-3.86,0-7,3.14-7,7v26c0,6.07-4.93,11-11,11s-11-4.93-11-11v-1.16c0.3,0.09,0.62,0.16,1,0.16s0.7-0.07,1-0.16V49c0,4.96,4.04,9,9,9  s9-4.04,9-9V23c0-4.96,4.04-9,9-9s9,4.04,9,9v19.09C55.67,42.04,55.34,42,55,42s-0.67,0.04-1,0.09V23C54,19.14,50.86,16,47,16z   M55,52c-2.21,0-4-1.79-4-4s1.79-4,4-4s4,1.79,4,4S57.21,52,55,52z"></path></svg>
