<svg version="1.2" xmlns="http://www.w3.org/2000/svg" viewBox="0 0 1179 1018" width="1179" height="1018">
	<style>
		.s1 { fill: #F6E05E }
		.s2 { fill: #FF8200 }
	</style>
	<g id="Слой 1">
		<g id="&lt;Group&gt;">
			<g id="&lt;Group&gt;">
				<g id="&lt;Group&gt;">
					<g id="&lt;Group&gt;">
						<g id="&lt;Group&gt;">
							<path id="&lt;Path&gt;" d="m335.5 582c-18.3-49.7-45.7-95.6-75.3-139.3l-1.2-3.7c-25.5 4.3-49.7 16.1-69.2 33q-0.2 0.2-0.4 0.4c-6.8 6-13 12.6-18.5 19.7q-75.9 80.8-151.7 161.6c-6.4 6.8-12.9 13.8-16.2 22.6-3.3 8.5-3.1 18-2.9 27.1q2.2 99.7 4.4 199.5c0.5 21.3 1.1 43.3 9.3 63 8.3 19.7 26.2 36.9 47.5 38 51.3-109.5 114.9-232.1 211.7-381.4 33.4-27.8 64-36.5 62.5-40.5z"/>
						</g>
						<g id="&lt;Group&gt;">
							<path id="&lt;Path&gt;" class="s1" d="m786.5 407.3c-46.4 3.9-141.1 2.4-187.6 1.3-60.3-1.3-40.1 27.1-100.4 26.6-42.9-0.4-78.8 7.4-94.1-32.7-15.3-40.1-11.1-79.8 20.7-108.7-39.2 12-75.2 34.1-103.5 63.6-6.3 6.5-12.4 13.7-15.2 22.3-2.9 8.6-2.3 18-1.6 27q3.4 47.7 6.9 95.3c1.9 26.6 4.2 54.2 14.3 78.7l-28.1 12c-24.5 9-30.1 15.1-31 18.4-59.6 123.2-156.4 256.1-215.8 379.3-1.6 3.3-3.3 6.9-2.8 10.5 1.1 7.6 10.1 10.8 17.6 12.4 27.7 6 92.3-2.1 120 3.8 3.7 0.9 7.9 1.6 11.2-0.3 2.9-1.7 4.5-5 5.8-8.1 41.8-97.6 66.7-181.1 105.8-279.8 2.1 3.4 21.8-4.8 25.9-3.6 5 1.5 24.6-1 29.6-2.5 33.3-9.9 49.6-27.5 78.6-46.6 7.8 1 15.8 0.4 23.7-0.3 109.4-9.3 222.8-21.8 316.6-78.7 4.7-2.9 9.6-6 12.4-10.8 2.8-4.7 7.4-11.6 10-16.4 13.1-24.6 26.8-53 29.1-80.6l13.6-36.7c0-3.2-57.6-45.8-61.7-45.4z"/>
						</g>
						<g id="&lt;Group&gt;">
							<g id="&lt;Group&gt;">
								<path id="&lt;Path&gt;" d="m1050.6 355.6c22.1-39.6 54.9-73.1 93.8-96.3 8.3-4.9 20.6-8.6 26.1-0.8 5 24-5 48.2-14.8 70.6q-23 52.8-46.1 105.5c-22.6-24.3-41.6-45.3-64.3-69.6"/>
							</g>
							<g id="&lt;Group&gt;">
								<path id="&lt;Path&gt;" class="s1" d="m1065.4 321.3c18.3-36.1 37-74.1 36-114.5-0.2-5.5-0.8-11.2-3.8-15.7-5.7-8.3-18.2-9.4-27.2-5-9 4.4-15.3 12.8-21 21.2-18 26.6-32.9 55.4-44.3 85.6-2.1 5.4-3.7 12.3 0.5 16.2 1.7 1.6 4 2.3 6.2 3 14.3 4.4 36 11.3 50.3 15.7 0 0 3.2-6.3 3.3-6.5z"/>
							</g>
							<g id="&lt;Group&gt;">
								<path id="&lt;Path&gt;" d="m1011.5 323.8c-7.7 9.2-13.9 19.7-18.2 30.9 17.6 11.3 32.6 19.4 37.7 16.1 4-2.5 6.3-6.8 8.1-11q4.8-11.4 9.7-22.8c0.6-1.3-0.5-1.3-0.8-1.5-0.2-0.1-1.2-0.6-1.5-0.7"/>
							</g>
							<g id="&lt;Group&gt;">
								<path id="&lt;Path&gt;" d="m986 366.9c-17.5 15.9-33.4 33.6-47.4 52.7-1.8 2.5-3.6 5.1-3.9 8.1-0.7 7.3 7.2 12.1 13.9 15.1 17.1 7.5 39.4 14.1 52.5 0.8 6.1-6.2 8.2-15.1 11.6-23.1 4.5-10.4 11.4-19.7 20.1-27"/>
							</g>
							<g id="&lt;Group&gt;">
								<path id="&lt;Path&gt;" d="m930.8 434.6c1.4 2.4 5.4 2.8 7.7 1 2.7-2.1 3.7-5.6 4.5-8.9q11.1-46.7 20.8-93.7c1.3-6.3 2.5-13 0.2-18.9-2-5-6.3-8.8-10.6-12.1-13.5-10.1-29-17.6-45.4-21.7-3.4-0.9-7.3-1.5-10.1 0.6-1.9 1.5-2.8 3.9-3.6 6.2-11.9 33.8-30.6 67.6-49.2 98.2 15.8-0.9 36.6-0.7 49.1 9.1 10.7 8.4 36.4 39.9 36.6 40.2z"/>
								<path id="&lt;Path&gt;" d="m922.8 431.6c1.4 2.4 5.4 2.8 7.7 1 2.7-2.1 3.7-5.6 4.5-8.9q11.1-46.7 20.8-93.7c1.3-6.3 2.5-13 0.2-18.9-2-5-6.3-8.8-10.6-12.1-13.5-10.1-29-17.6-45.4-21.7-3.4-0.9-7.3-1.5-10.1 0.6-1.9 1.5-2.8 3.9-3.6 6.2-11.9 33.8-30.6 67.6-49.2 98.2 15.8-0.9 36.6-0.7 49.1 9.1 10.7 8.4 36.4 39.9 36.6 40.2z"/>
							</g>
							<g id="&lt;Group&gt;">
								<path id="&lt;Path&gt;" d="m964.8 288c9.7-4.1 12.5-18.9 5.1-26.3-5.7-5.7-17.2-5.4-22.6-3.6-5.7 1.9-24.5 6.4-33 10.1 14.8 6.7 34.8 15.6 50.5 19.7"/>
							</g>
							<g id="&lt;Group&gt;">
								<path id="&lt;Path&gt;" d="m974.2 233.5c2.4-44-4.4-83.1-11.7-126.6-0.4-2.7-1.2-5.9-3.7-7.1-2-1-4.5-0.4-6.6 0.4-28.4 10.4-47 42.3-42.3 72.1 1.4 8.3 4.3 16.3 5 24.6 1.7 19.2-8.1 38.2-5.2 57.2 22.1-5.4 43.8-12.3 64.9-20.7"/>
							</g>
							<g id="&lt;Group&gt;">
								<path id="&lt;Path&gt;" class="s1" d="m873.5 279.9c-10.1-20.2-22.5-38-32.9-58-3.5-6.8-5.6-12.4-8.9-20.1-3.4-7.8-6.6-16.4-12.3-22.4-4.4-4.8-12.5-4.6-18-1.1-5.5 3.5-8.8 9.7-10.4 16-5.5 20.4 3.7 42 15.7 59.4 12 17.5 27 33.2 35.2 52.7 11.3-10.6 20-16.2 31.3-26.8"/>
							</g>
							<g id="&lt;Group&gt;">
								<path id="&lt;Path&gt;" d="m878.8 294.3c-9.1 9.6-19.6 17.9-30.9 24.6 3.3 13.8 3.6 28.3 0.9 42.2 7.5-2.4 21-8.4 28.5-10.8 0.4-0.2 1.5-56 1.5-56z"/>
							</g>
							<g id="&lt;Group&gt;">
								<path id="&lt;Path&gt;" d="m1102.4 452.8c-23.2-24.3-38.6-45-61.8-69.4l-7.7 4.3c-21 11.3-41.4 23.7-61.1 37.2q-0.3-1.8-0.6-3.7c-38.9-12.1-79.5-18.7-120.3-19.8 1.7-5.8 0.5-12.5-3.9-19-8.6-12.6-66.2-37.7-81.1-40.9-6.4-1.3-12.8-2.3-19.3-2.9-18-4.4-38.5-0.5-56.7 5.3-24.2 7.9-48.5 18.8-73.8 16.4-25.3-2.5-50.9-25.4-44.7-50 2.8-11.1 15.2-16.6 20.1-26.9 21.9-46.1 71.6-60.9 107-90 22.6-18.7 34.9-40.9 35.4-60.8 0.7-29.4-5.3-48.6-34.5-51.8-23.5-2.5-30.6 15.9-50.3 29.1-35.4 23.7-72 43.7-107.4 67.4-10.9 7.3-22.2 15-28.7 26.4-8 14.3-22.1 27.3-29.1 42.1-17 36.4-69.7 39.2-95.6 69.8-22.1 26.3-17.5 68.7 5.2 94.5 22.7 25.9 59.3 36.3 93.6 34.1 34.3-2.2 66.9-15.7 97.5-31.2l170.8 18.6c7-3 12.8-7.8 17.2-13.8l10.5-0.4c14.6 31.1 55.5 7.8 56.8 50.5 0.6 20.1-48.4 101.3-47.8 121.3 61.9-5.1 123.3-16.8 182.7-34.7 2.8-0.8 5.7-1.8 7.5-4.1 0.5-0.7 0.8-1.4 1.1-2.2 0.5 0.7 0.9 1.5 1.4 2.2 40.1-31.4 79.3-64 117.6-97.6z"/>
							</g>
						</g>
					</g>
				</g>
				<g id="&lt;Group&gt;">
					<path id="&lt;Path&gt;" class="s2" d="m864.6 18.9c23.1 20.4 25.3 55.7 4.9 78.8-20.4 23.1-55.6 25.3-78.7 4.9-23.1-20.4-25.3-55.6-5-78.8 20.4-23.1 55.7-25.3 78.8-4.9z"/>
				</g>
			</g>
			<g id="&lt;Group&gt;">
				<g id="&lt;Group&gt;">
					<g id="&lt;Group&gt;">
					</g>
				</g>
				<g id="&lt;Group&gt;">
					<g id="&lt;Group&gt;">
					</g>
				</g>
			</g>
		</g>
		<g id="&lt;Group&gt;">
			<g id="&lt;Group&gt;">
				<g id="&lt;Group&gt;">
					<g id="&lt;Group&gt;">
						<g id="&lt;Group&gt;">
						</g>
						<g id="&lt;Group&gt;">
						</g>
						<g id="&lt;Group&gt;">
							<g id="&lt;Group&gt;">
							</g>
							<g id="&lt;Group&gt;">
							</g>
							<g id="&lt;Group&gt;">
							</g>
							<g id="&lt;Group&gt;">
							</g>
							<g id="&lt;Group&gt;">
							</g>
							<g id="&lt;Group&gt;">
							</g>
							<g id="&lt;Group&gt;">
							</g>
							<g id="&lt;Group&gt;">
							</g>
							<g id="&lt;Group&gt;">
							</g>
							<g id="&lt;Group&gt;">
							</g>
						</g>
					</g>
				</g>
				<g id="&lt;Group&gt;">
				</g>
			</g>
			<g id="&lt;Group&gt;">
				<g id="&lt;Group&gt;">
					<g id="&lt;Group&gt;">
					</g>
				</g>
				<g id="&lt;Group&gt;">
					<g id="&lt;Group&gt;">
					</g>
				</g>
			</g>
		</g>
	</g>
</svg>
